<?xml version="1.0" encoding="utf-8"?>
<!-- Generator: Adobe Illustrator 23.0.1, SVG Export Plug-In . SVG Version: 6.00 Build 0)  -->
<svg version="1.1" id="圖層_1" xmlns="http://www.w3.org/2000/svg" xmlns:xlink="http://www.w3.org/1999/xlink" x="0px" y="0px"
	 viewBox="0 0 150.62 150.43" style="enable-background:new 0 0 150.62 150.43;" xml:space="preserve">
<style type="text/css">
	.st0{fill:#FFFFFF;}
</style>
<path class="st0" d="M91.61,59.01c9.13,9.13,19.42,16.43,30.39,21.89c-14.37,4.66-30.76,1.28-42.16-10.12
	C68.43,59.38,65.05,42.98,69.71,28.61C75.17,39.59,82.47,49.88,91.61,59.01z M138.47,12.15c-16.19-16.19-42.45-16.2-58.65-0.01
	c-1.12,1.12-2.16,2.28-3.12,3.49c5.11,12.79,12.84,24.76,23.18,35.1c10.33,10.33,22.31,18.06,35.1,23.17
	c1.21-0.97,2.38-2.01,3.49-3.12C154.67,54.59,154.67,28.34,138.47,12.15z M93.97,92.14l-65.66,53.43c-6.47,6.47-16.98,6.47-23.45,0
	c-6.48-6.48-6.47-16.98,0-23.45l53.43-65.66c3,7.89,7.67,15.3,14.03,21.65C78.67,84.47,86.07,89.14,93.97,92.14z M61.37,96.95
	c0.5-0.5,0.5-1.33,0-1.83l-6.22-6.22c-0.51-0.51-1.33-0.5-1.83,0l-14.27,14.27c-0.51,0.51-0.51,1.32,0,1.83l6.22,6.22
	c0.5,0.5,1.32,0.51,1.83,0L61.37,96.95z"/>
</svg>
