<?xml version="1.0" standalone="no"?>
<!DOCTYPE svg PUBLIC "-//W3C//DTD SVG 20010904//EN"
 "http://www.w3.org/TR/2001/REC-SVG-20010904/DTD/svg10.dtd">
<svg version="1.0" xmlns="http://www.w3.org/2000/svg"
 width="700.000000pt" height="700.000000pt" viewBox="0 0 700.000000 700.000000"
 preserveAspectRatio="xMidYMid meet">
<metadata>
Created by potrace 1.11, written by Peter Selinger 2001-2013
</metadata>
<g transform="translate(0.000000,700.000000) scale(0.100000,-0.100000)"
fill="#000000" stroke="none">
<path d="M3310 6994 c-389 -33 -616 -77 -910 -174 -851 -280 -1572 -890 -1990
-1682 -177 -335 -300 -696 -359 -1058 -36 -219 -45 -339 -45 -580 0 -241 9
-361 45 -580 119 -724 474 -1402 1005 -1920 578 -563 1275 -889 2099 -982 142
-16 548 -16 690 0 478 54 889 178 1292 391 302 160 552 343 807 591 531 518
886 1196 1005 1920 36 219 45 339 45 580 0 241 -9 361 -45 580 -119 724 -474
1402 -1005 1920 -566 552 -1259 882 -2049 975 -126 15 -493 27 -585 19z m2223
-2810 c158 -36 288 -137 357 -278 50 -101 70 -191 70 -322 0 -156 -43 -296
-123 -397 -28 -36 -29 -39 -11 -52 11 -7 51 -28 89 -47 39 -18 72 -34 74 -35
7 -4 -53 -135 -65 -140 -15 -6 -131 49 -195 94 l-52 36 -81 -28 c-331 -113
-654 58 -743 395 -24 89 -24 272 0 360 37 138 113 257 205 325 51 37 154 82
217 95 68 13 183 11 258 -6z m-3393 -94 l0 -90 -335 0 -335 0 0 -150 0 -150
315 0 315 0 0 -90 0 -90 -315 0 -315 0 0 -170 0 -170 350 0 350 0 0 -90 0 -90
-445 0 -445 0 0 590 0 590 430 0 430 0 0 -90z m1225 -369 l151 -454 156 454
156 454 121 3 121 3 0 -591 0 -590 -95 0 -95 0 -1 408 c0 277 -4 399 -10 382
-6 -14 -70 -196 -142 -405 l-132 -380 -86 -3 -86 -3 -128 378 c-71 208 -134
394 -141 413 -10 29 -13 -34 -13 -377 l-1 -413 -100 0 -100 0 0 590 0 591 137
-3 136 -3 152 -454z"/>
<path d="M5345 4020 c-124 -18 -232 -103 -275 -218 -45 -118 -44 -306 1 -427
30 -81 112 -163 192 -193 59 -23 217 -32 217 -13 0 4 -24 16 -54 25 l-54 17
25 75 c15 44 30 74 39 74 25 0 119 -40 168 -70 55 -35 55 -35 101 52 58 109
71 312 29 433 -60 173 -212 269 -389 245z"/>
</g>
</svg>
