<?xml version="1.0" encoding="utf-8"?>
<!-- Generator: Adobe Illustrator 23.0.1, SVG Export Plug-In . SVG Version: 6.00 Build 0)  -->
<svg version="1.1" id="圖層_1" xmlns="http://www.w3.org/2000/svg" xmlns:xlink="http://www.w3.org/1999/xlink" x="0px" y="0px"
	 viewBox="0 0 35 35" style="enable-background:new 0 0 35 35;" xml:space="preserve">
<style type="text/css">
	.st0{fill:#CC6262;}
	.st1{fill:none;stroke:#CC6262;stroke-linecap:round;stroke-miterlimit:10;}
</style>
<g>
	<path class="st0" d="M17.5,1c4.41,0,8.55,1.72,11.67,4.83c6.43,6.43,6.43,16.9,0,23.33C26.05,32.28,21.91,34,17.5,34
		s-8.55-1.72-11.67-4.83c-6.43-6.43-6.43-16.9,0-23.33C8.95,2.72,13.09,1,17.5,1 M17.5,0C13.02,0,8.54,1.71,5.13,5.13
		c-6.83,6.83-6.83,17.91,0,24.75C8.54,33.29,13.02,35,17.5,35s8.96-1.71,12.37-5.13c6.83-6.83,6.83-17.91,0-24.75
		C26.46,1.71,21.98,0,17.5,0L17.5,0z"/>
</g>
<line class="st1" x1="25.55" y1="23.78" x2="6.52" y2="4.75"/>
<line class="st1" x1="28.49" y1="30.26" x2="9.11" y2="10.88"/>
</svg>
